/* XPM */
static const char * item_xpm[] = {
"20 20 47 1",
" 	c None",
".	c #000000",
"+	c #EEF9FB",
"@	c #E1F6FB",
"#	c #D9F5FB",
"$	c #D4F3FB",
"%	c #CDF2FC",
"&	c #C8F1FB",
"*	c #C3F0FB",
"=	c #BFEEFB",
"-	c #BDEEFB",
";	c #D8F5FB",
">	c #CEF2FB",
",	c #C5F0FB",
"'	c #B5EDFB",
")	c #B0ECFB",
"!	c #ACEBFB",
"~	c #A9EBFB",
"{	c #B9EDFB",
"]	c #A0E8FB",
"^	c #94E6FB",
"/	c #8CE4FA",
"(	c #85E3FA",
"_	c #82E2FB",
":	c #88E4FB",
"<	c #67DDFB",
"[	c #52D8FA",
"}	c #47D4F9",
"|	c #42D3F8",
"1	c #41D2F8",
"2	c #42D4F9",
"3	c #2FCDF5",
"4	c #28C9F3",
"5	c #27C9F2",
"6	c #26C8F2",
"7	c #C8F1FC",
"8	c #B5EDFC",
"9	c #52D8FB",
"0	c #25C8F2",
"a	c #24C7F1",
"b	c #23C5EF",
"c	c #47D5F9",
"d	c #29C9F3",
"e	c #23C4EE",
"f	c #23C4ED",
"g	c #BEEFFC",
"h	c #41D3F9",
"....................",
".+@#$%&*=--=*&%$#@+.",
".@;>,-')!~~!)'-,>;@.",
".#>{!]^/(__(/^]!{>#.",
".$,!:<[}|11|}[<:!,$.",
".>-]<2345665432<]->.",
".78^930abbbba039^87.",
".*)/cdaeeffeeadc/)*.",
".=!(|5beffffeb5|(!=.",
".g~_h6beffffeb6h_~g.",
".g~_h6beffffeb6h_~g.",
".=!(|5beffffeb5|(!=.",
".*)/cdaeeffeeadc/)*.",
".78^930abbbba039^87.",
".>-]<2345665432<]->.",
".$,!:<[}|11|}[<:!,$.",
".#>{!]^/(__(/^]!{>#.",
".@;>,-')!~~!)'-,>;@.",
".+@#$%&*=--=*&%$#@+.",
"...................."};
