/* XPM */
static const char * item_ch_xpm[] = {
"20 20 233 2",
"  	c #000000",
". 	c #EEF9FB",
"+ 	c #E1F6FB",
"@ 	c #D9F5FB",
"# 	c #D3F2FA",
"$ 	c #CBF0FA",
"% 	c #C6EFF9",
"& 	c #C1EEF9",
"* 	c #BEECF9",
"= 	c #BCEDFA",
"- 	c #BEEDFA",
"; 	c #C2EFFA",
"> 	c #D2F1F9",
", 	c #D8F4FA",
"' 	c #D8F5FB",
") 	c #CCF0F9",
"! 	c #C3EDF8",
"~ 	c #B9E8F5",
"{ 	c #B0E6F4",
"] 	c #ABE6F4",
"^ 	c #A7E5F4",
"/ 	c #A6E6F6",
"( 	c #A7E8F8",
"_ 	c #A9E7F7",
": 	c #ADE7F6",
"< 	c #B8E7F4",
"[ 	c #C0E9F4",
"} 	c #CAEDF6",
"| 	c #D6F3F9",
"1 	c #E0F5FA",
"2 	c #B8EBF9",
"3 	c #A6E4F5",
"4 	c #8DDBEF",
"5 	c #80D0E4",
"6 	c #7BD2E7",
"7 	c #7BD6ED",
"8 	c #7CD8F0",
"9 	c #82DEF4",
"0 	c #89DFF4",
"a 	c #94DFF2",
"b 	c #93D6E7",
"c 	c #9FD9E8",
"d 	c #AFE0ED",
"e 	c #C8EAF3",
"f 	c #D6F2F8",
"g 	c #C2ECF7",
"h 	c #ACEBFB",
"i 	c #86E0F7",
"j 	c #FDF7F7",
"k 	c #FFFFFF",
"l 	c #3FBDDE",
"m 	c #37AFCE",
"n 	c #38B6D7",
"o 	c #3FCDF2",
"p 	c #42D3F8",
"q 	c #40899C",
"r 	c #71BED1",
"s 	c #96CEDC",
"t 	c #B6DEE8",
"u 	c #CDEAF2",
"v 	c #CAF1FB",
"w 	c #040D10",
"x 	c #F8F8F8",
"y 	c #1B8DAA",
"z 	c #1FA2C4",
"A 	c #26C8F2",
"B 	c #3F3F3F",
"C 	c #7CB4C3",
"D 	c #A4CEDA",
"E 	c #C0E2EA",
"F 	c #C6EFFA",
"G 	c #AEE4F2",
"H 	c #8CD9ED",
"I 	c #E5E5E5",
"J 	c #545454",
"K 	c #F3F3F3",
"L 	c #307D92",
"M 	c #669EAC",
"N 	c #92BFCC",
"O 	c #B5DAE4",
"P 	c #A9E3F1",
"Q 	c #7DCCE0",
"R 	c #3FBDDD",
"S 	c #FEFEFE",
"T 	c #E8E8E8",
"U 	c #1C8AA7",
"V 	c #246B7D",
"W 	c #58909E",
"X 	c #88B6C2",
"Y 	c #AED6DF",
"Z 	c #A7E4F3",
"` 	c #7ACFE4",
" .	c #36ABC9",
"..	c #21ABCE",
"+.	c #BCBCBC",
"@.	c #0C4251",
"#.	c #0F4D5D",
"$.	c #206779",
"%.	c #548F9E",
"&.	c #86B6C3",
"*.	c #ABD5E0",
"=.	c #BDEEFB",
"-.	c #A5E5F5",
";.	c #79D3EA",
">.	c #38B4D5",
",.	c #1D97B6",
"'.	c #23C5EF",
").	c #198AA8",
"!.	c #0B3E4B",
"~.	c #0F4F60",
"{.	c #226F83",
"].	c #5898A9",
"^.	c #89BFCC",
"/.	c #AEDAE6",
"(.	c #3DC5E8",
"_.	c #26C6EF",
":.	c #136A80",
"<.	c #105567",
"[.	c #25798F",
"}.	c #5EA3B5",
"|.	c #8FC7D5",
"1.	c #B1DFEB",
"2.	c #BFEEFB",
"3.	c #ABE9F9",
"4.	c #80DBF1",
"5.	c #42D2F7",
"6.	c #19819C",
"7.	c #277B91",
"8.	c #62A6B7",
"9.	c #93C9D7",
"0.	c #B2DEEA",
"a.	c #C3F0FB",
"b.	c #AFEAF9",
"c.	c #87DCF1",
"d.	c #22BFE6",
"e.	c #F9F9F9",
"f.	c #3FBEDF",
"g.	c #619EAE",
"h.	c #90C1CE",
"i.	c #B2DBE5",
"j.	c #C8F1FC",
"k.	c #B4EBFA",
"l.	c #AFE4F1",
"m.	c #FBF5F5",
"n.	c #041114",
"o.	c #D5D5D5",
"p.	c #13687F",
"q.	c #0D4756",
"r.	c #1FAFD4",
"s.	c #031216",
"t.	c #58A4B8",
"u.	c #5D909D",
"v.	c #8AB5C1",
"w.	c #AFD3DC",
"x.	c #CEF2FB",
"y.	c #BBEBF8",
"z.	c #98DDEF",
"A.	c #60CDE9",
"B.	c #FBFBFB",
"C.	c #14667B",
"D.	c #0F5060",
"E.	c #0E4C5C",
"F.	c #14687E",
"G.	c #23B7DC",
"H.	c #40CEF2",
"I.	c #387889",
"J.	c #5D8893",
"K.	c #89ADB6",
"L.	c #AECDD5",
"M.	c #D4F3FB",
"N.	c #C3EEF9",
"O.	c #A5E1F0",
"P.	c #79CBDF",
"Q.	c #57B4CC",
"R.	c #3893AB",
"S.	c #277488",
"T.	c #216A7C",
"U.	c #216A7D",
"V.	c #236F82",
"W.	c #23697B",
"X.	c #276373",
"Y.	c #2E6471",
"Z.	c #44727E",
"`.	c #678D97",
" +	c #8FAEB6",
".+	c #B4CED5",
"++	c #B3E6F3",
"@+	c #9DD7E5",
"#+	c #85C1D1",
"$+	c #6DA9B8",
"%+	c #5D97A6",
"&+	c #5692A1",
"*+	c #5696A6",
"=+	c #5A9CAD",
"-+	c #5C9DAD",
";+	c #5C95A4",
">+	c #5A8C99",
",+	c #5E8894",
"'+	c #69909A",
")+	c #7EA2AB",
"!+	c #A1BDC4",
"~+	c #BED6DC",
"{+	c #D7F4FA",
"]+	c #BBE4EE",
"^+	c #A9D5E0",
"/+	c #97C6D2",
"(+	c #8BBBC7",
"_+	c #87B8C5",
":+	c #89BECB",
"<+	c #8DC3D1",
"[+	c #8FC3D1",
"}+	c #8DBECA",
"|+	c #8BB6C1",
"1+	c #8DB1BB",
"2+	c #95B6BE",
"3+	c #A4C1C8",
"4+	c #BAD2D8",
"5+	c #CFE3E7",
"6+	c #D7F3F9",
"7+	c #CEECF4",
"8+	c #C3E6EF",
"9+	c #B7DCE5",
"0+	c #AED7E0",
"a+	c #ADD9E5",
"b+	c #AFDCE8",
"c+	c #B1DCE8",
"d+	c #B1DAE4",
"e+	c #B2D7DF",
"f+	c #B3D4DC",
"g+	c #B9D5DC",
"h+	c #C3DCE1",
"i+	c #D2E6EA",
"j+	c #E5EFF1",
"                                        ",
"  . + @ # $ % & * = = - ; % $ > , + .   ",
"  + ' ) ! ~ { ] ^ / ( _ : { < [ } | 1   ",
"  @ ) 2 _ 3 4 5 6 7 8 9 0 a b c d e f   ",
"  # g h i j k l m n o p k j q r s t u   ",
"  ) < v j w   x y z A k     j B C D E   ",
"  F G H k       I J k       K L M N O   ",
"  & P Q R S       k       T U V W X Y   ",
"  * Z `  ...k           +.@.#.$.%.&.*.  ",
"  =.-.;.>.,.'.k       k ).!.~.{.].^./.  ",
"  =.( 8 (._.k           k :.<.[.}.|.1.  ",
"  2.3.4.5.k       k       x 6.7.8.9.0.  ",
"  a.b.c.k       k d.k       e.f.g.h.i.  ",
"  j.k.l.m.n.  o.p.q.r.k   s.j t.u.v.w.  ",
"  x.y.z.A.j B.C.D.E.F.G.K j H.I.J.K.L.  ",
"  M.N.O.P.Q.R.S.T.U.{.V.W.X.Y.Z.`. +.+  ",
"  @ ) ++@+#+$+%+&+*+=+-+;+>+,+'+)+!+~+  ",
"  + {+} ]+^+/+(+_+:+<+[+}+|+1+2+3+4+5+  ",
"  . + 6+7+8+9+0+*.a+b+c+d+e+f+g+h+i+j+  ",
"                                        "};
